<svg xmlns="http://www.w3.org/2000/svg" width="408" height="612" viewBox="0 0 408 612">
<g>
<path d="M 171.75 417.24 C171.10,419.20 137.02,419.35 130.81,417.43 C125.38,415.75 122.56,412.41 121.06,405.90 C120.42,403.10 120.04,367.80 120.02,308.72 C120.02,306.05 120.02,303.45 120.02,300.92 C120.00,219.01 120.00,211.66 123.67,208.06 C124.14,207.60 124.68,207.20 125.29,206.70 C132.05,201.21 129.22,201.54 174.61,201.00 C197.82,200.73 216.62,200.81 216.39,201.18 C215.85,202.05 217.38,203.00 220.23,203.54 C222.67,204.01 260.76,242.70 265.24,249.26 C269.35,255.28 269.99,258.98 269.99,276.80 L 270.00 293.09 L 256.50 292.50 L 255.90 278.00 C255.57,270.02 255.24,263.36 255.15,263.19 C255.07,263.02 254.55,263.16 254.00,263.50 C253.45,263.84 253.00,263.73 253.00,263.25 C253.00,262.77 252.08,261.39 250.96,260.19 C249.09,258.18 247.96,258.00 237.21,257.98 C224.22,257.95 219.59,256.60 215.00,251.47 C213.62,249.93 213.04,248.99 213.71,249.37 C214.52,249.84 214.44,249.15 213.46,247.28 C212.47,245.39 212.01,241.27 212.01,234.34 C212.00,225.01 211.78,223.84 209.32,220.09 L 206.64 216.00 L 172.57 216.02 C153.83,216.02 138.00,216.36 137.40,216.77 C134.09,218.97 134.00,221.45 134.00,307.47 L 134.00 312.34 C134.00,389.26 134.00,398.09 137.63,400.00 C138.18,400.29 138.81,400.42 139.53,400.60 C141.22,401.02 141.76,401.53 141.00,402.00 C139.02,403.22 144.72,404.14 152.81,403.90 L 160.29 403.68 L 166.23 409.83 C169.50,413.21 171.98,416.55 171.75,417.24 ZM 310.80 309.80 C307.66,312.94 305.37,310.16 306.44,304.49 C307.18,300.54 307.97,300.20 310.35,302.83 C312.29,304.98 312.49,308.11 310.80,309.80 ZM 290.02 330.47 C287.32,333.73 285.00,331.68 285.00,326.01 C285.00,323.64 285.34,323.27 287.08,323.73 C289.96,324.49 291.70,328.46 290.02,330.47 ZM 330.80 301.80 C329.36,303.24 328.02,303.30 326.00,302.02 C324.27,300.93 323.98,299.03 325.29,297.28 C326.00,296.32 326.84,296.38 329.10,297.55 C332.28,299.20 332.60,300.00 330.80,301.80 ZM 320.19 289.14 C321.07,289.69 320.58,289.97 318.72,289.98 C316.75,290.00 315.70,289.35 315.11,287.78 C314.19,285.28 315.82,283.00 318.54,283.00 C319.86,283.00 320.07,283.57 319.55,285.66 C319.12,287.38 319.34,288.60 320.19,289.14 ZM 276.07 302.96 C273.41,304.39 272.68,304.26 273.36,302.50 C273.68,301.67 273.39,300.99 272.72,300.97 C272.05,300.95 272.56,300.05 273.85,298.97 C275.15,297.89 276.61,297.26 277.10,297.56 C278.70,298.55 278.05,301.90 276.07,302.96 ZM 277.67 316.16 C276.37,318.23 276.05,318.32 274.15,317.11 C272.29,315.93 273.12,312.60 275.39,312.16 C277.87,311.69 279.10,313.86 277.67,316.16 ZM 318.80 330.80 C317.19,332.41 315.34,332.32 314.67,330.59 C314.10,329.09 316.89,326.00 318.83,326.00 C320.36,326.00 320.34,329.26 318.80,330.80 ZM 289.72 287.08 C289.07,288.12 287.95,289.19 287.22,289.47 C286.49,289.75 286.17,289.53 286.51,288.99 C286.84,288.44 286.64,288.00 286.06,288.00 C284.85,288.00 285.06,285.82 286.36,284.87 C286.83,284.53 288.05,284.46 289.06,284.72 C290.58,285.12 290.69,285.52 289.72,287.08 ZM 331.56 314.10 C331.93,314.70 331.62,315.79 330.87,316.52 C329.73,317.62 329.28,317.61 328.20,316.41 C327.48,315.62 327.17,314.53 327.51,313.99 C328.32,312.67 330.72,312.73 331.56,314.10 Z" fill="rgb(35,106,212)"/>
<path d="M 237.32 219.43 C228.73,210.83 221.27,203.74 220.23,203.54 C217.38,203.00 215.85,202.05 216.39,201.18 C216.62,200.81 197.82,200.73 174.61,201.00 C129.22,201.54 132.05,201.21 125.29,206.70 C124.68,207.20 124.14,207.60 123.67,208.06 C120.00,211.66 120.00,219.01 120.02,300.92 C120.02,303.45 120.02,306.05 120.02,308.72 C120.04,367.80 120.42,403.10 121.06,405.90 C122.42,411.78 124.85,415.07 129.31,416.89 C127.14,416.09 125.53,414.97 123.92,413.43 C123.05,412.59 122.31,411.99 121.67,411.29 C117.98,407.20 117.99,399.79 118.00,324.14 C118.00,319.34 118.00,314.27 118.00,308.91 C118.00,214.13 118.01,213.61 120.10,209.29 C121.26,206.90 123.81,203.72 125.77,202.22 L 129.34 199.50 L 170.16 199.21 C198.49,199.01 212.28,199.27 215.24,200.06 C218.65,200.98 221.97,203.80 237.32,219.43 ZM 307.00 331.33 C307.00,336.59 306.68,338.00 305.50,338.00 C304.30,338.00 304.00,336.47 304.00,330.22 L 304.00 322.44 L 310.50 316.00 C315.80,310.75 317.00,308.97 317.00,306.36 C317.00,303.75 315.81,301.99 310.50,296.76 L 304.00 290.35 L 304.00 282.68 C304.00,276.52 304.30,275.00 305.50,275.00 C306.69,275.00 307.00,276.42 307.00,281.78 L 307.00 288.56 L 313.45 295.04 C318.69,300.31 320.03,302.31 320.57,305.74 C321.24,309.92 321.18,310.03 314.12,317.30 L 307.00 324.65 ZM 298.92 305.83 C298.74,314.62 298.04,316.68 296.29,313.55 C295.78,312.65 293.36,311.94 289.85,311.68 C286.76,311.45 283.72,310.95 283.11,310.57 C282.50,310.19 282.00,308.13 282.00,306.00 C282.00,302.49 282.69,301.44 289.00,295.36 L 296.00 288.61 L 296.00 281.80 C296.00,276.42 296.31,275.00 297.50,275.00 C298.70,275.00 299.00,276.51 299.00,282.61 L 299.00 290.23 L 291.95 296.76 C286.24,302.04 284.95,303.78 285.20,305.87 C285.48,308.26 285.88,308.45 290.50,308.48 L 295.50 308.50 L 295.80 303.83 C295.97,301.22 296.77,298.61 297.61,297.91 C298.93,296.82 299.09,297.78 298.92,305.83 ZM 230.94 395.88 C225.91,397.51 217.31,398.30 216.62,397.20 C216.31,396.69 218.45,396.03 221.39,395.72 C227.07,395.14 234.82,391.71 239.65,387.64 C246.60,381.79 250.78,367.11 248.18,357.70 C246.93,353.17 247.35,352.98 249.43,357.15 C250.36,359.03 251.00,362.88 251.00,366.64 C251.00,380.29 242.98,391.97 230.94,395.88 ZM 159.73 278.26 C158.26,279.22 156.70,281.39 156.26,283.07 C155.82,284.76 155.14,285.80 154.73,285.40 C153.35,284.02 154.00,279.31 155.87,277.15 C157.71,275.02 158.14,275.00 193.31,275.00 C212.87,275.00 229.09,275.34 229.35,275.75 C229.60,276.16 214.64,276.50 196.11,276.50 C165.66,276.50 162.15,276.67 159.73,278.26 ZM 288.54 324.44 C288.11,324.12 287.61,323.87 287.08,323.73 C285.34,323.27 285.00,323.64 285.00,326.01 C285.00,329.37 285.82,331.46 287.05,331.93 C285.52,332.08 283.93,331.70 283.36,330.78 C282.95,330.11 282.71,328.23 282.83,326.61 C283.12,322.84 278.73,318.00 275.01,318.00 C270.10,318.00 268.37,313.78 271.96,310.53 C274.17,308.54 276.73,309.07 277.68,311.73 C278.03,312.70 281.17,316.49 284.66,320.15 C286.30,321.88 287.58,323.28 288.54,324.44 ZM 331.56 314.10 C330.72,312.73 328.32,312.67 327.51,313.99 C327.17,314.53 327.48,315.62 328.20,316.41 C328.86,317.14 329.29,317.43 329.78,317.29 C329.09,317.74 328.34,318.00 327.67,318.00 C326.41,318.00 323.93,319.21 322.15,320.68 C319.45,322.92 319.02,323.82 319.55,326.22 C319.56,326.27 319.57,326.32 319.58,326.38 C319.40,326.14 319.15,326.00 318.83,326.00 C316.89,326.00 314.10,329.09 314.67,330.59 C314.98,331.39 315.54,331.84 316.21,331.93 C314.54,332.11 312.76,331.42 311.99,329.98 C311.05,328.22 311.68,327.12 316.70,321.73 C319.89,318.30 322.84,315.35 323.25,315.17 C323.66,314.98 324.00,314.23 324.00,313.49 C324.00,312.75 324.71,311.44 325.57,310.57 C329.48,306.66 334.59,310.93 331.55,315.57 C331.53,315.60 331.50,315.63 331.48,315.67 C331.75,315.09 331.80,314.49 331.56,314.10 ZM 278.00 300.11 C278.00,301.11 277.13,302.40 276.07,302.96 C278.05,301.90 278.70,298.55 277.10,297.56 C276.61,297.26 275.15,297.89 273.85,298.97 C272.56,300.05 272.05,300.95 272.72,300.97 C273.39,300.99 273.68,301.67 273.36,302.50 C273.12,303.12 273.06,303.54 273.19,303.76 C272.79,303.58 272.32,303.23 271.60,302.69 C268.47,300.41 269.91,296.69 274.50,295.20 C279.94,293.44 283.38,289.66 282.55,286.35 C281.73,283.08 283.49,281.00 287.06,281.00 C289.01,281.00 290.06,281.62 290.52,283.05 C290.82,284.01 290.85,284.80 290.32,285.83 C290.45,285.25 290.05,284.99 289.06,284.72 C288.05,284.46 286.83,284.53 286.36,284.87 C285.06,285.82 284.85,288.00 286.06,288.00 C286.64,288.00 286.84,288.44 286.51,288.99 C286.17,289.53 286.49,289.75 287.22,289.47 C287.29,289.44 287.37,289.40 287.45,289.36 C286.38,290.45 285.00,291.76 283.25,293.40 C280.36,296.09 278.00,299.12 278.00,300.11 ZM 162.50 365.96 C162.50,370.38 162.15,374.00 161.72,374.00 C160.28,374.00 159.91,371.38 160.21,363.41 L 160.50 355.50 L 166.34 353.50 C171.50,351.73 172.40,351.01 174.09,347.31 C176.30,342.46 178.00,340.99 178.00,343.91 C178.00,346.80 174.01,354.08 172.10,354.66 C171.22,354.93 169.69,355.58 168.71,356.11 C167.72,356.64 166.58,356.86 166.16,356.60 C165.75,356.34 164.75,356.54 163.95,357.03 C162.88,357.69 162.50,360.01 162.50,365.96 ZM 203.03 321.37 C200.79,322.27 198.29,323.00 197.48,323.00 C194.51,323.00 196.12,321.22 200.89,319.24 C205.32,317.39 205.93,316.74 207.47,312.09 C208.40,309.28 209.92,306.59 210.83,306.11 C211.75,305.63 216.10,305.49 220.50,305.79 C229.38,306.41 227.77,307.72 217.92,307.90 L 212.34 308.00 L 209.72 313.87 C207.49,318.87 206.49,319.99 203.03,321.37 ZM 331.87 300.27 C332.08,299.38 331.23,298.65 329.10,297.55 C326.84,296.38 326.00,296.32 325.29,297.28 C324.66,298.12 324.40,299.00 324.49,299.80 C324.12,298.98 321.54,296.06 318.12,292.62 C311.47,285.93 310.90,285.05 311.96,283.07 C312.86,281.40 313.88,280.96 316.32,281.19 C318.56,281.41 319.23,281.64 319.35,283.13 C319.15,283.04 318.88,283.00 318.54,283.00 C315.82,283.00 314.19,285.28 315.11,287.78 C315.70,289.35 316.75,290.00 318.72,289.98 C320.02,289.98 320.65,289.84 320.61,289.56 C321.03,290.21 321.58,290.88 322.25,291.62 C323.94,293.48 326.11,295.00 327.08,295.00 C330.89,295.00 332.99,297.67 331.87,300.27 ZM 299.00 330.44 C299.00,336.49 298.70,338.00 297.50,338.00 C296.32,338.00 296.00,336.61 296.00,331.50 C296.00,325.44 295.76,324.74 292.38,321.00 C289.38,317.68 289.09,317.00 290.66,317.00 C291.70,317.00 294.00,318.32 295.78,319.94 C298.86,322.76 299.00,323.21 299.00,330.44 ZM 174.38 333.25 C174.62,334.21 174.65,335.00 174.44,335.00 C173.92,335.00 172.00,331.30 172.00,330.30 C172.00,329.84 174.89,326.35 178.42,322.54 C183.81,316.75 185.09,315.83 186.34,316.87 C187.62,317.93 187.17,318.71 183.17,322.30 C175.96,328.78 173.90,331.35 174.38,333.25 ZM 252.51 262.16 C252.82,262.64 253.00,263.03 253.00,263.25 C253.00,263.73 253.45,263.84 254.00,263.50 C254.55,263.16 255.07,263.02 255.15,263.19 C255.24,263.36 255.57,270.02 255.90,278.00 L 256.50 292.50 L 267.91 293.00 L 254.00 293.00 L 254.00 278.72 C254.00,269.41 253.73,264.90 252.51,262.16 ZM 308.99 301.53 C307.62,300.53 307.01,301.41 306.44,304.49 C305.51,309.42 307.12,312.17 309.63,310.73 C309.13,311.33 308.58,311.94 308.00,312.50 L 304.00 316.41 L 304.00 296.59 L 308.00 300.50 C308.34,300.83 308.67,301.18 308.99,301.53 ZM 208.03 218.11 L 209.32 220.09 C211.78,223.84 212.00,225.01 212.01,234.34 C212.01,241.27 212.47,245.39 213.46,247.28 C214.44,249.15 214.52,249.84 213.71,249.37 C213.04,248.99 213.62,249.93 215.00,251.47 C215.52,252.05 216.04,252.58 216.57,253.07 C216.44,252.95 216.30,252.83 216.17,252.70 C211.70,248.53 210.67,245.12 210.20,233.00 C209.93,225.93 209.22,220.44 208.35,218.75 ZM 169.73 413.80 C168.79,412.61 167.58,411.22 166.23,409.83 L 160.29 403.68 L 152.81 403.90 C144.72,404.14 139.02,403.22 141.00,402.00 C141.47,401.71 141.44,401.41 140.96,401.12 C143.23,401.63 147.56,402.05 151.40,402.10 L 159.50 402.20 L 165.82 409.13 C167.34,410.80 168.70,412.43 169.73,413.80 ZM 251.04 320.98 C247.41,322.83 243.00,323.68 243.00,322.52 C243.00,321.93 253.21,316.02 254.25,316.01 C254.66,316.00 255.00,316.67 255.00,317.48 C255.00,318.29 253.22,319.87 251.04,320.98 ZM 176.39 395.76 C174.43,400.51 171.95,402.55 172.06,399.33 C172.10,398.33 173.17,395.25 174.44,392.50 C176.34,388.39 176.89,387.83 177.52,389.35 C177.99,390.48 177.56,392.95 176.39,395.76 ZM 277.67 316.16 C279.10,313.86 277.87,311.69 275.39,312.16 C273.12,312.60 272.29,315.93 274.15,317.11 C276.05,318.32 276.37,318.23 277.67,316.16 ZM 220.51 255.73 C224.14,257.42 229.01,257.96 237.21,257.98 C243.18,257.99 246.19,258.05 248.00,258.45 C245.82,258.20 241.69,258.02 237.22,258.02 C228.89,258.00 224.13,257.44 220.51,255.73 ZM 138.54 400.34 C138.21,400.25 137.91,400.15 137.63,400.00 C135.79,399.03 134.88,396.29 134.43,383.81 C134.89,396.02 135.83,398.82 137.76,399.97 C138.00,400.12 138.26,400.24 138.54,400.34 ZM 269.52 261.30 C269.15,257.70 268.52,255.26 267.45,253.01 C268.17,254.37 268.63,255.60 268.99,256.89 C269.18,257.59 269.36,259.17 269.52,261.30 ZM 320.19 289.14 C319.48,288.69 319.20,287.75 319.39,286.44 C319.53,287.45 319.87,288.38 320.48,289.36 C320.41,289.29 320.31,289.22 320.19,289.14 ZM 145.39 418.71 C140.22,418.65 136.43,418.43 133.50,417.95 C136.39,418.34 140.70,418.59 145.39,418.71 ZM 290.02 330.47 C290.71,329.64 290.82,328.48 290.52,327.35 C291.18,328.82 290.84,329.76 289.80,330.80 C289.68,330.92 289.56,331.02 289.42,331.12 C289.62,330.93 289.82,330.72 290.02,330.47 ZM 324.52 300.01 C324.61,300.47 324.82,300.91 325.15,301.29 C324.34,300.64 323.88,300.05 324.47,300.03 C324.50,300.03 324.51,300.02 324.52,300.01 ZM 171.74 417.28 C171.57,417.78 169.92,418.12 166.17,418.35 C169.38,418.09 171.53,417.73 171.75,417.26 C171.74,417.27 171.74,417.28 171.74,417.28 ZM 327.74 302.83 C328.29,302.97 328.80,302.96 329.29,302.81 C328.99,302.93 328.71,303.00 328.49,303.00 C328.29,303.00 328.03,302.94 327.74,302.83 ZM 312.00 306.50 C312.00,306.62 311.98,306.75 311.95,306.89 C311.95,306.52 311.92,306.14 311.84,305.76 C311.94,306.05 312.00,306.30 312.00,306.50 ZM 276.07 302.96 C274.97,303.55 274.39,303.87 273.89,303.90 C274.37,303.80 275.09,303.49 276.07,302.96 Z" fill="rgb(25,44,96)"/>
<path d="M 162.50 365.96 C162.50,360.01 162.88,357.69 163.95,357.03 C164.75,356.54 165.75,356.34 166.16,356.60 C166.58,356.86 167.72,356.64 168.71,356.11 C169.69,355.58 171.22,354.93 172.10,354.66 C174.01,354.08 178.00,346.80 178.00,343.91 C178.00,341.23 176.57,342.25 174.63,346.17 C175.94,342.74 175.70,340.34 174.02,337.04 C172.91,334.86 172.00,332.27 172.00,331.27 C172.00,331.16 172.03,331.02 172.10,330.84 C172.50,332.25 173.99,335.00 174.44,335.00 C174.65,335.00 174.62,334.21 174.38,333.25 C173.90,331.35 175.96,328.78 183.17,322.30 C187.17,318.71 187.62,317.93 186.34,316.87 C185.09,315.83 183.81,316.75 178.42,322.54 L 184.64 315.85 L 195.81 321.33 L 200.32 319.48 C196.00,321.36 194.63,323.00 197.48,323.00 C198.29,323.00 200.79,322.27 203.03,321.37 C206.49,319.99 207.49,318.87 209.72,313.87 L 212.34 308.00 L 217.92 307.90 C227.77,307.72 229.38,306.41 220.50,305.79 C216.63,305.52 212.80,305.60 211.31,305.95 C212.80,305.36 216.19,305.01 220.44,305.02 L 228.50 305.04 L 230.50 311.14 C232.43,317.03 232.67,317.30 237.65,319.15 L 242.80 321.06 L 248.60 318.50 L 251.76 317.10 C248.41,318.84 243.00,322.09 243.00,322.52 C243.00,323.68 247.41,322.83 251.04,320.98 C253.22,319.87 255.00,318.29 255.00,317.48 C255.00,316.67 254.66,316.00 254.25,316.01 C254.24,316.01 254.23,316.01 254.22,316.01 L 254.41 315.93 L 260.87 322.39 L 267.34 328.86 L 264.57 335.02 C261.82,341.15 261.81,341.22 263.51,345.67 C264.54,348.37 266.17,350.57 267.61,351.23 C268.92,351.83 270.00,352.64 270.00,353.04 C270.00,353.75 275.78,355.40 277.29,355.12 C277.72,355.04 277.94,359.37 277.79,364.74 L 277.50 374.50 L 273.00 375.81 C266.37,377.74 265.68,378.28 263.63,383.20 L 261.75 387.70 L 264.39 393.60 L 267.04 399.50 L 260.42 406.41 L 253.80 413.31 L 248.65 411.10 C245.82,409.89 243.27,408.82 243.00,408.73 C242.73,408.63 240.20,409.40 237.40,410.42 C232.45,412.23 232.23,412.48 230.34,418.39 L 228.39 424.50 L 219.20 424.79 C214.14,424.95 209.95,424.72 209.88,424.29 C209.25,419.95 207.82,416.00 206.89,416.00 C206.40,416.00 206.00,415.33 206.00,414.52 C206.00,413.70 203.70,411.87 200.90,410.45 L 195.80 407.86 L 190.37 410.43 C187.39,411.84 184.61,413.00 184.19,413.00 C183.78,413.00 180.59,410.12 177.10,406.60 L 170.76 400.20 L 173.44 394.53 L 176.13 388.85 L 173.92 383.52 C171.62,377.96 169.92,376.64 163.55,375.44 L 159.93 374.76 L 160.12 368.52 C160.17,372.55 160.65,374.00 161.72,374.00 C162.15,374.00 162.50,370.38 162.50,365.96 ZM 230.94 395.88 C242.98,391.97 251.00,380.29 251.00,366.64 C251.00,362.88 250.36,359.03 249.43,357.15 C247.35,352.98 246.93,353.17 248.18,357.70 C248.92,360.38 249.11,363.49 248.85,366.69 C249.14,361.29 248.73,359.37 246.27,353.95 C242.84,346.43 237.34,340.53 231.00,337.60 C224.29,334.50 211.16,334.65 205.00,337.90 C191.63,344.94 185.47,361.89 191.07,376.21 C193.76,383.09 199.04,388.54 206.50,392.12 C214.44,395.93 223.13,396.13 230.96,392.93 C227.67,394.40 224.26,395.43 221.39,395.72 C218.45,396.03 216.31,396.69 216.62,397.20 C217.31,398.30 225.91,397.51 230.94,395.88 ZM 159.73 278.26 C162.15,276.67 165.66,276.50 196.11,276.50 C214.64,276.50 229.60,276.16 229.35,275.75 C229.09,275.34 213.15,275.01 193.81,275.00 L 229.89 275.00 L 231.44 277.22 C232.30,278.44 233.00,280.59 233.00,282.00 C233.00,283.41 232.30,285.56 231.44,286.78 L 229.89 289.00 L 193.69 288.97 C170.98,288.95 156.85,288.56 155.75,287.92 C154.50,287.19 153.92,285.08 153.99,282.83 C153.99,283.94 154.23,284.89 154.73,285.40 C155.14,285.80 155.82,284.76 156.26,283.07 C156.70,281.39 158.26,279.22 159.73,278.26 ZM 176.39 395.76 C177.56,392.95 177.99,390.48 177.52,389.35 C176.89,387.83 176.34,388.39 174.44,392.50 C173.17,395.25 172.10,398.33 172.06,399.33 C171.95,402.55 174.43,400.51 176.39,395.76 ZM 202.31 318.62 C205.18,317.28 205.93,316.17 207.29,312.43 C207.47,311.96 207.65,311.49 207.85,311.02 C207.72,311.38 207.59,311.73 207.47,312.09 C206.11,316.19 205.48,317.18 202.31,318.62 ZM 172.44 350.21 C171.29,351.62 169.74,352.34 166.34,353.50 L 160.50 355.50 L 166.28 353.50 C169.30,352.46 171.26,351.42 172.44,350.21 ZM 245.04 380.39 C243.56,383.35 241.73,385.89 239.65,387.64 C241.65,385.96 243.51,383.38 245.04,380.39 ZM 154.76 279.02 C155.05,278.31 155.42,277.67 155.87,277.15 C155.43,277.66 155.05,278.31 154.76,279.02 Z" fill="rgb(111,114,128)"/>
<path d="M 0.00 306.00 L 0.00 0.00 L 204.00 0.00 L 408.00 0.00 L 408.00 306.00 L 408.00 612.00 L 204.00 612.00 L 0.00 612.00 L 0.00 306.00 ZM 230.34 418.39 C232.23,412.48 232.45,412.23 237.40,410.42 C240.20,409.40 242.73,408.63 243.00,408.73 C243.27,408.82 245.82,409.89 248.65,411.10 L 253.80 413.31 L 260.42 406.41 L 267.04 399.50 L 264.39 393.60 L 261.75 387.70 L 263.63 383.20 C265.68,378.28 266.37,377.74 273.00,375.81 L 277.50 374.50 L 277.79 364.74 C277.94,359.37 277.72,355.04 277.29,355.12 C275.78,355.40 270.00,353.75 270.00,353.04 C270.00,352.64 268.92,351.83 267.61,351.23 C266.17,350.57 264.54,348.37 263.51,345.67 C261.81,341.22 261.82,341.15 264.57,335.02 L 267.34 328.86 L 260.87 322.39 L 254.41 315.93 L 248.60 318.50 L 242.80 321.06 L 237.65 319.15 C232.67,317.30 232.43,317.03 230.50,311.14 L 228.50 305.04 L 220.44 305.02 C215.51,305.01 211.75,305.48 210.74,306.25 C209.84,306.94 208.29,309.72 207.29,312.43 C205.69,316.80 204.95,317.58 200.65,319.34 L 195.81 321.33 L 190.23 318.59 L 184.64 315.85 L 178.32 322.65 C174.84,326.40 172.00,330.27 172.00,331.27 C172.00,332.27 172.91,334.86 174.02,337.04 C176.12,341.15 175.97,343.86 173.38,348.93 C172.46,350.72 170.31,352.11 166.28,353.50 L 160.50 355.50 L 160.22 365.13 L 159.93 374.76 L 163.55 375.44 C169.92,376.64 171.62,377.96 173.92,383.52 L 176.13 388.85 L 173.44 394.53 L 170.76 400.20 L 177.10 406.60 C180.59,410.12 183.78,413.00 184.19,413.00 C184.61,413.00 187.39,411.84 190.37,410.43 L 195.80 407.86 L 200.90 410.45 C203.70,411.87 206.00,413.70 206.00,414.52 C206.00,415.33 206.40,416.00 206.89,416.00 C207.82,416.00 209.25,419.95 209.88,424.29 C209.95,424.72 214.14,424.95 219.20,424.79 L 228.39 424.50 L 230.34 418.39 ZM 171.74 417.28 C171.96,416.62 169.30,412.95 165.82,409.13 L 159.50 402.20 L 151.40 402.10 C146.94,402.04 141.83,401.49 140.04,400.86 C133.80,398.69 134.00,401.85 134.00,307.47 C134.00,221.45 134.09,218.97 137.40,216.77 C138.00,216.36 153.90,216.02 172.72,216.02 L 206.95 216.00 L 208.35 218.75 C209.22,220.44 209.93,225.93 210.20,233.00 C210.67,245.12 211.70,248.53 216.17,252.70 C220.60,256.84 225.20,258.00 237.22,258.02 C243.42,258.02 248.98,258.36 249.56,258.77 C253.35,261.40 254.00,264.32 254.00,278.72 L 254.00 293.00 L 262.00 293.00 L 270.00 293.00 L 269.99 276.75 C269.99,267.81 269.54,258.87 268.99,256.89 C267.29,250.79 263.29,245.97 241.00,223.18 C222.47,204.24 218.91,201.04 215.24,200.06 C212.28,199.27 198.49,199.01 170.16,199.21 L 129.34 199.50 L 125.77 202.22 C123.81,203.72 121.26,206.90 120.10,209.29 C118.01,213.61 118.00,214.13 118.00,308.91 C118.00,413.39 117.66,407.43 123.92,413.43 C128.74,418.04 133.59,418.91 153.42,418.69 C166.45,418.55 171.45,418.17 171.74,417.28 ZM 299.00 330.44 C299.00,323.21 298.86,322.76 295.78,319.94 C294.00,318.32 291.70,317.00 290.66,317.00 C289.09,317.00 289.38,317.68 292.38,321.00 C295.76,324.74 296.00,325.44 296.00,331.50 C296.00,336.61 296.32,338.00 297.50,338.00 C298.70,338.00 299.00,336.49 299.00,330.44 ZM 307.00 331.33 L 307.00 324.65 L 314.12 317.30 C321.18,310.03 321.24,309.92 320.57,305.74 C320.03,302.31 318.69,300.31 313.45,295.04 L 307.00 288.56 L 307.00 281.78 C307.00,276.42 306.69,275.00 305.50,275.00 C304.30,275.00 304.00,276.52 304.00,282.68 L 304.00 290.35 L 310.50 296.76 C315.81,301.99 317.00,303.75 317.00,306.36 C317.00,308.97 315.80,310.75 310.50,316.00 L 304.00 322.44 L 304.00 330.22 C304.00,336.47 304.30,338.00 305.50,338.00 C306.68,338.00 307.00,336.59 307.00,331.33 ZM 289.80 330.80 C291.94,328.66 291.10,326.91 284.66,320.15 C281.17,316.49 278.03,312.70 277.68,311.73 C276.73,309.07 274.17,308.54 271.96,310.53 C268.37,313.78 270.10,318.00 275.01,318.00 C278.73,318.00 283.12,322.84 282.83,326.61 C282.71,328.23 282.95,330.11 283.36,330.78 C284.33,332.34 288.24,332.36 289.80,330.80 ZM 318.97 330.54 C319.68,329.68 319.92,327.90 319.55,326.22 C319.02,323.82 319.45,322.92 322.15,320.68 C323.93,319.21 326.41,318.00 327.67,318.00 C328.99,318.00 330.63,316.97 331.55,315.57 C334.59,310.93 329.48,306.66 325.57,310.57 C324.71,311.44 324.00,312.75 324.00,313.49 C324.00,314.23 323.66,314.98 323.25,315.17 C322.84,315.35 319.89,318.30 316.70,321.73 C311.68,327.12 311.05,328.22 311.99,329.98 C313.25,332.34 317.21,332.66 318.97,330.54 ZM 312.00 306.50 C312.00,305.35 310.20,302.65 308.00,300.50 L 304.00 296.59 L 304.00 306.50 L 304.00 316.41 L 308.00 312.50 C310.20,310.35 312.00,307.65 312.00,306.50 ZM 298.92 305.83 C299.09,297.78 298.93,296.82 297.61,297.91 C296.77,298.61 295.97,301.22 295.80,303.83 L 295.50 308.50 L 290.50 308.48 C285.88,308.45 285.48,308.26 285.20,305.87 C284.95,303.78 286.24,302.04 291.95,296.76 L 299.00 290.23 L 299.00 282.61 C299.00,276.51 298.70,275.00 297.50,275.00 C296.31,275.00 296.00,276.42 296.00,281.80 L 296.00 288.61 L 289.00 295.36 C282.69,301.44 282.00,302.49 282.00,306.00 C282.00,308.13 282.50,310.19 283.11,310.57 C283.72,310.95 286.76,311.45 289.85,311.68 C293.36,311.94 295.78,312.65 296.29,313.55 C298.04,316.68 298.74,314.62 298.92,305.83 ZM 276.07 302.96 C277.13,302.40 278.00,301.11 278.00,300.11 C278.00,299.12 280.36,296.09 283.25,293.40 C290.34,286.78 291.28,285.45 290.52,283.05 C290.06,281.62 289.01,281.00 287.06,281.00 C283.49,281.00 281.73,283.08 282.55,286.35 C283.38,289.66 279.94,293.44 274.50,295.20 C269.91,296.69 268.47,300.41 271.60,302.69 C273.74,304.26 273.65,304.26 276.07,302.96 ZM 330.80 301.80 C333.76,298.84 331.65,295.00 327.08,295.00 C326.11,295.00 323.94,293.48 322.25,291.62 C319.97,289.12 319.22,287.38 319.34,284.87 C319.49,281.77 319.24,281.48 316.32,281.19 C313.88,280.96 312.86,281.40 311.96,283.07 C310.90,285.05 311.47,285.93 318.12,292.62 C322.15,296.68 325.01,300.01 324.47,300.03 C323.14,300.08 327.10,303.00 328.49,303.00 C329.10,303.00 330.14,302.46 330.80,301.80 ZM 231.44 286.78 C232.30,285.56 233.00,283.41 233.00,282.00 C233.00,280.59 232.30,278.44 231.44,277.22 L 229.89 275.00 L 193.81 275.00 C158.12,275.00 157.71,275.02 155.87,277.15 C153.42,279.98 153.34,286.52 155.75,287.92 C156.85,288.56 170.98,288.95 193.69,288.97 L 229.89 289.00 L 231.44 286.78 ZM 206.50 392.12 C199.04,388.54 193.76,383.09 191.07,376.21 C185.47,361.89 191.63,344.94 205.00,337.90 C211.16,334.65 224.29,334.50 231.00,337.60 C237.34,340.53 242.84,346.43 246.27,353.95 C248.78,359.46 249.15,361.36 248.83,366.98 C248.40,374.62 244.38,383.66 239.65,387.64 C230.03,395.73 217.55,397.42 206.50,392.12 Z" fill="rgb(254,254,254)"/>
</g>
</svg>